<svg width="236" height="151" viewBox="0 0 236 151" fill="none" xmlns="http://www.w3.org/2000/svg">
<path fill-rule="evenodd" clip-rule="evenodd" d="M0.0698242 75.5851C2.3407 79.4332 45.409 121.642 49.6375 123.281C56.8414 126.062 62.6362 121.49 63.6151 116.004C65.1031 107.852 50.8904 97.5664 41.8461 88.6901C37.8133 84.7281 32.0578 80.3093 29.787 75.547C34.5636 68.7664 48.0322 57.0708 54.7666 50.5566C58.0164 47.4328 64.7114 42.6709 64.4765 36.309C64.2416 29.8708 58.0945 25.2994 50.4989 27.3947C45.6439 28.7661 3.86767 70.0236 0.0698242 75.5851Z" fill="#F26651"/>
<path fill-rule="evenodd" clip-rule="evenodd" d="M132.37 1.65955C125.441 5.05002 126.302 7.98334 123.209 18.5738L106.177 78.6118C102.38 91.9833 98.8556 104.517 94.9013 118.345C93.57 122.955 89.537 135.183 89.3807 139.183C89.1065 147.259 96.7023 153.393 104.846 149.126C111.62 145.545 126.498 83.1833 129.904 71.793C133.898 58.536 137.069 45.7738 141.258 32.0977C142.511 27.9834 146.583 14.8786 146.583 11.2977C146.583 3.14526 139.731 -1.9595 132.37 1.65955Z" fill="#F26651"/>
<path fill-rule="evenodd" clip-rule="evenodd" d="M206.096 75.5471C202.454 82.4427 188.673 93.6809 182.173 99.9665C178.689 103.319 171.602 107.814 172.111 114.785C172.62 121.528 179.158 126.252 186.519 123.281C189.534 122.062 232.837 79.4332 235.93 75.5089C232.289 69.376 190.708 28.8424 185.54 27.3567C178.023 25.1853 171.876 29.7948 171.484 36.3091C170.897 46.0996 194.389 60.7662 206.096 75.5471Z" fill="#F26651"/>
</svg>
